{
	"asset":{
		"generator":"Khronos glTF Blender I/O v4.1.63",
		"version":"2.0"
	},
	"scene":0,
	"scenes":[
		{
			"name":"Scene",
			"nodes":[
				0
			]
		}
	],
	"nodes":[
		{
			"mesh":0,
			"name":"choco.005"
		}
	],
	"materials":[
		{
			"doubleSided":true,
			"name":"chocolate dark",
			"normalTexture":{
				"index":0,
				"scale":0.10000000149011612
			},
			"pbrMetallicRoughness":{
				"baseColorFactor":[
					0.0223824642598629,
					0.007727192714810371,
					0.003232635324820876,
					1
				],
				"metallicFactor":0,
				"roughnessFactor":0.20000000298023224
			}
		}
	],
	"meshes":[
		{
			"name":"Cube.007",
			"primitives":[
				{
					"attributes":{
						"POSITION":0,
						"NORMAL":1,
						"TEXCOORD_0":2
					},
					"indices":3,
					"material":0
				}
			]
		}
	],
	"textures":[
		{
			"sampler":0,
			"source":0
		}
	],
	"images":[
		{
			"mimeType":"image/jpeg",
			"name":"stamp",
			"uri":"stamp.jpg"
		}
	],
	"accessors":[
		{
			"bufferView":0,
			"componentType":5126,
			"count":186,
			"max":[
				0.019370615482330322,
				0.007305404171347618,
				0.017924608662724495
			],
			"min":[
				-0.019370615482330322,
				0,
				-0.017924608662724495
			],
			"type":"VEC3"
		},
		{
			"bufferView":1,
			"componentType":5126,
			"count":186,
			"type":"VEC3"
		},
		{
			"bufferView":2,
			"componentType":5126,
			"count":186,
			"type":"VEC2"
		},
		{
			"bufferView":3,
			"componentType":5123,
			"count":1032,
			"type":"SCALAR"
		}
	],
	"bufferViews":[
		{
			"buffer":0,
			"byteLength":2232,
			"byteOffset":0,
			"target":34962
		},
		{
			"buffer":0,
			"byteLength":2232,
			"byteOffset":2232,
			"target":34962
		},
		{
			"buffer":0,
			"byteLength":1488,
			"byteOffset":4464,
			"target":34962
		},
		{
			"buffer":0,
			"byteLength":2064,
			"byteOffset":5952,
			"target":34963
		}
	],
	"samplers":[
		{
			"magFilter":9729,
			"minFilter":9987
		}
	],
	"buffers":[
		{
			"byteLength":8016,
			"uri":"chocolate.bin"
		}
	]
}
