{
	"asset":{
		"generator":"Khronos glTF Blender I/O v4.1.63",
		"version":"2.0"
	},
	"scene":0,
	"scenes":[
		{
			"name":"Scene",
			"nodes":[
				0
			]
		}
	],
	"nodes":[
		{
			"mesh":0,
			"name":"Protein bar"
		}
	],
	"materials":[
		{
			"doubleSided":true,
			"name":"Salty_BAR",
			"normalTexture":{
				"index":0
			},
			"pbrMetallicRoughness":{
				"baseColorTexture":{
					"index":1
				},
				"metallicFactor":0,
				"roughnessFactor":0.5
			}
		}
	],
	"meshes":[
		{
			"name":"Plane.009",
			"primitives":[
				{
					"attributes":{
						"POSITION":0,
						"NORMAL":1,
						"TEXCOORD_0":2
					},
					"indices":3,
					"material":0
				}
			]
		}
	],
	"textures":[
		{
			"sampler":0,
			"source":0
		},
		{
			"sampler":0,
			"source":1
		}
	],
	"images":[
		{
			"mimeType":"image/jpeg",
			"name":"BAR_NORMAL",
			"uri":"BAR_NORMAL.jpg"
		},
		{
			"mimeType":"image/png",
			"name":"VANILLA@300x",
			"uri":"VANILLA300x.png"
		}
	],
	"accessors":[
		{
			"bufferView":0,
			"componentType":5126,
			"count":176138,
			"max":[
				0.06423033773899078,
				0.01822747103869915,
				0.022404255345463753
			],
			"min":[
				-0.06547599285840988,
				-4.457388058654033e-06,
				-0.02150225266814232
			],
			"type":"VEC3"
		},
		{
			"bufferView":1,
			"componentType":5126,
			"count":176138,
			"type":"VEC3"
		},
		{
			"bufferView":2,
			"componentType":5126,
			"count":176138,
			"type":"VEC2"
		},
		{
			"bufferView":3,
			"componentType":5125,
			"count":1015296,
			"type":"SCALAR"
		}
	],
	"bufferViews":[
		{
			"buffer":0,
			"byteLength":2113656,
			"byteOffset":0,
			"target":34962
		},
		{
			"buffer":0,
			"byteLength":2113656,
			"byteOffset":2113656,
			"target":34962
		},
		{
			"buffer":0,
			"byteLength":1409104,
			"byteOffset":4227312,
			"target":34962
		},
		{
			"buffer":0,
			"byteLength":4061184,
			"byteOffset":5636416,
			"target":34963
		}
	],
	"samplers":[
		{
			"magFilter":9729,
			"minFilter":9987
		}
	],
	"buffers":[
		{
			"byteLength":9697600,
			"uri":"protein.bin"
		}
	]
}
